<svg xmlns="http://www.w3.org/2000/svg" viewBox="0 0 39.26 31.41"><defs><style>.cls-1{fill:#018e97;}</style></defs><g id="Layer_2" data-name="Layer 2"><g id="Layer_1-2" data-name="Layer 1"><path class="cls-1" d="M19.63,28.5a2.94,2.94,0,0,1-2.95,2.91H2.94A2.94,2.94,0,0,1,0,28.5a6.87,6.87,0,0,1,6.87-6.91,1.25,1.25,0,0,1,.43.07,8.06,8.06,0,0,0,2.51.42,8.12,8.12,0,0,0,2.52-.42,1.25,1.25,0,0,1,.43-.07A6.87,6.87,0,0,1,19.63,28.5ZM3.93,13.74a5.89,5.89,0,1,1,5.88,5.89A5.89,5.89,0,0,1,3.93,13.74ZM39.26,3V22.48a3,3,0,0,1-2.95,3h-15a7.84,7.84,0,0,0-2.43-3.93h4.68V17.67h7.85v3.92h3.92V3.93H13.74V7A7.73,7.73,0,0,0,9.81,5.89V3a3,3,0,0,1,2.95-3H36.31A3,3,0,0,1,39.26,3Z"/></g></g></svg>