<svg xmlns="http://www.w3.org/2000/svg" viewBox="0 0 27.48 31.41"><defs><style>.cls-1{fill:#018e97;}</style></defs><g id="Layer_2" data-name="Layer 2"><g id="Layer_1-2" data-name="Layer 1"><path class="cls-1" d="M27.48,6.87V9.81H0V6.87A2.94,2.94,0,0,1,2.94,3.93H5.89V1a1,1,0,0,1,1-1h2a1,1,0,0,1,1,1v3h7.86V1a1,1,0,0,1,1-1h2a1,1,0,0,1,1,1v3h2.95A2.94,2.94,0,0,1,27.48,6.87ZM0,11.78H27.48V28.46a3,3,0,0,1-2.94,2.95H2.94A3,3,0,0,1,0,28.46Zm3.93,7.11a.74.74,0,0,0,.73.74H7.12a.74.74,0,0,0,.73-.74V16.44a.74.74,0,0,0-.73-.74H4.66a.74.74,0,0,0-.73.74Zm0,7.85a.74.74,0,0,0,.73.74H7.12a.74.74,0,0,0,.73-.74V24.29a.73.73,0,0,0-.73-.73H4.66a.73.73,0,0,0-.73.73Zm7.85-7.85a.74.74,0,0,0,.73.74H15a.74.74,0,0,0,.73-.74V16.44A.74.74,0,0,0,15,15.7H12.51a.74.74,0,0,0-.73.74Zm0,7.85a.74.74,0,0,0,.73.74H15a.74.74,0,0,0,.73-.74V24.29a.73.73,0,0,0-.73-.73H12.51a.73.73,0,0,0-.73.73Zm7.85-7.85a.74.74,0,0,0,.74.74h2.45a.74.74,0,0,0,.74-.74V16.44a.75.75,0,0,0-.74-.74H20.37a.74.74,0,0,0-.74.74Zm0,7.85a.74.74,0,0,0,.74.74h2.45a.74.74,0,0,0,.74-.74V24.29a.74.74,0,0,0-.74-.73H20.37a.74.74,0,0,0-.74.73Z"/></g></g></svg>