<svg xmlns="http://www.w3.org/2000/svg" viewBox="0 0 37.3 32.64"><defs><style>.cls-1{fill:#018e97;}</style></defs><g id="Layer_2" data-name="Layer 2"><g id="Layer_1-2" data-name="Layer 1"><path class="cls-1" d="M10.88,1.75V7.58A1.75,1.75,0,0,1,9.13,9.33H1.75A1.75,1.75,0,0,1,0,7.58V1.75A1.75,1.75,0,0,1,1.75,0H9.13A1.75,1.75,0,0,1,10.88,1.75Zm0,17.48A1.75,1.75,0,0,1,9.13,21H1.75A1.75,1.75,0,0,1,0,19.23V13.41a1.75,1.75,0,0,1,1.75-1.75H9.13a1.75,1.75,0,0,1,1.75,1.75ZM1.75,23.31H9.13a1.75,1.75,0,0,1,1.75,1.75v5.83a1.75,1.75,0,0,1-1.75,1.75H1.75A1.75,1.75,0,0,1,0,30.89V25.06A1.75,1.75,0,0,1,1.75,23.31ZM15,0H35.55A1.75,1.75,0,0,1,37.3,1.75V7.58a1.75,1.75,0,0,1-1.75,1.75H15a1.75,1.75,0,0,1-1.75-1.75V1.75A1.75,1.75,0,0,1,15,0ZM13.21,19.23V13.41A1.75,1.75,0,0,1,15,11.66H35.55a1.75,1.75,0,0,1,1.75,1.75v5.82A1.75,1.75,0,0,1,35.55,21H15A1.75,1.75,0,0,1,13.21,19.23Zm0,11.66V25.06A1.75,1.75,0,0,1,15,23.31H35.55a1.75,1.75,0,0,1,1.75,1.75v5.83a1.75,1.75,0,0,1-1.75,1.75H15A1.75,1.75,0,0,1,13.21,30.89Z"/></g></g></svg>