<svg xmlns="http://www.w3.org/2000/svg" viewBox="0 0 31.93 36.49"><defs><style>.cls-1{fill:#f58220;}</style></defs><g id="Layer_2" data-name="Layer 2"><g id="Layer_1-2" data-name="Layer 1"><path class="cls-1" d="M31.93,33.07a3.42,3.42,0,0,1-3.42,3.42H3.42A3.42,3.42,0,0,1,0,33.07V8A3.42,3.42,0,0,1,3.42,4.56H6.84V.86A.87.87,0,0,1,7.7,0h2.85a.87.87,0,0,1,.86.86v3.7h9.12V.86A.86.86,0,0,1,21.38,0h2.85a.87.87,0,0,1,.86.86v3.7h3.42A3.42,3.42,0,0,1,31.93,8ZM28.51,11.4H3.42V32.64a.43.43,0,0,0,.43.43H28.08a.43.43,0,0,0,.43-.43ZM7.7,20.53a.87.87,0,0,1-.86-.86V16.82A.86.86,0,0,1,7.7,16h2.85a.86.86,0,0,1,.86.85v2.85a.87.87,0,0,1-.86.86Zm2.85,6.84H7.7a.87.87,0,0,1-.86-.86V23.66a.86.86,0,0,1,.86-.85h2.85a.86.86,0,0,1,.86.85v2.85A.87.87,0,0,1,10.55,27.37Zm6.84-6.84H14.54a.87.87,0,0,1-.86-.86V16.82a.86.86,0,0,1,.86-.85h2.85a.86.86,0,0,1,.86.85v2.85A.87.87,0,0,1,17.39,20.53Zm0,6.84H14.54a.87.87,0,0,1-.86-.86V23.66a.86.86,0,0,1,.86-.85h2.85a.86.86,0,0,1,.86.85v2.85A.87.87,0,0,1,17.39,27.37Zm6.84-6.84H21.38a.86.86,0,0,1-.85-.86V16.82a.85.85,0,0,1,.85-.85h2.85a.86.86,0,0,1,.86.85v2.85A.87.87,0,0,1,24.23,20.53Zm0,6.84H21.38a.86.86,0,0,1-.85-.86V23.66a.85.85,0,0,1,.85-.85h2.85a.86.86,0,0,1,.86.85v2.85A.87.87,0,0,1,24.23,27.37Z"/></g></g></svg>