<svg xmlns="http://www.w3.org/2000/svg" viewBox="0 0 31.41 27.48"><defs><style>.cls-1{fill:#018e97;}</style></defs><g id="Layer_2" data-name="Layer 2"><g id="Layer_1-2" data-name="Layer 1"><path class="cls-1" d="M9.16,1.47V6.38A1.47,1.47,0,0,1,7.69,7.85H1.47A1.47,1.47,0,0,1,0,6.38V1.47A1.47,1.47,0,0,1,1.47,0H7.69A1.47,1.47,0,0,1,9.16,1.47Zm0,14.72a1.47,1.47,0,0,1-1.47,1.48H1.47A1.47,1.47,0,0,1,0,16.19v-4.9A1.47,1.47,0,0,1,1.47,9.81H7.69a1.47,1.47,0,0,1,1.47,1.48ZM1.47,19.63H7.69A1.47,1.47,0,0,1,9.16,21.1V26a1.47,1.47,0,0,1-1.47,1.47H1.47A1.47,1.47,0,0,1,0,26V21.1A1.47,1.47,0,0,1,1.47,19.63ZM12.6,0H29.93a1.47,1.47,0,0,1,1.48,1.47V6.38a1.47,1.47,0,0,1-1.48,1.47H12.6a1.47,1.47,0,0,1-1.48-1.47V1.47A1.47,1.47,0,0,1,12.6,0ZM11.12,16.19v-4.9A1.48,1.48,0,0,1,12.6,9.81H29.93a1.48,1.48,0,0,1,1.48,1.48v4.9a1.48,1.48,0,0,1-1.48,1.48H12.6A1.48,1.48,0,0,1,11.12,16.19Zm0,9.82V21.1a1.47,1.47,0,0,1,1.48-1.47H29.93a1.47,1.47,0,0,1,1.48,1.47V26a1.47,1.47,0,0,1-1.48,1.47H12.6A1.47,1.47,0,0,1,11.12,26Z"/></g></g></svg>