<svg xmlns="http://www.w3.org/2000/svg" viewBox="0 0 39.26 31.3"><defs><style>.cls-1{fill:#018e97;}</style></defs><g id="Layer_2" data-name="Layer 2"><g id="Layer_1-2" data-name="Layer 1"><path class="cls-1" d="M25.76,18.57a1.49,1.49,0,0,1,.65,1.79,14.68,14.68,0,0,1-2.61,4,1.46,1.46,0,0,1-1.86.33l-1.79-1a10.38,10.38,0,0,1-3.37,1.94v2.06a1.46,1.46,0,0,1-1.2,1.45,13.76,13.76,0,0,1-4.66,0,1.47,1.47,0,0,1-1.23-1.45V25.63a10.78,10.78,0,0,1-3.37-1.94l-1.78,1a1.47,1.47,0,0,1-1.86-.32,14.62,14.62,0,0,1-2.59-4,1.5,1.5,0,0,1,.65-1.79l2-1a10.6,10.6,0,0,1,0-3.89l-2-1a1.47,1.47,0,0,1-.65-1.78,14.52,14.52,0,0,1,2.59-4,1.47,1.47,0,0,1,1.86-.32l1.78,1A10.81,10.81,0,0,1,9.69,5.56V3.5a1.48,1.48,0,0,1,1.2-1.45,14.08,14.08,0,0,1,4.67,0A1.47,1.47,0,0,1,16.78,3.5V5.56A10.56,10.56,0,0,1,20.15,7.5l1.79-1a1.46,1.46,0,0,1,1.86.33,14.58,14.58,0,0,1,2.58,4,1.48,1.48,0,0,1-.62,1.79l-2.06,1a10.6,10.6,0,0,1,0,3.89ZM10,12.35c-3.63,4.73,1.76,10.12,6.48,6.49C20.11,14.11,14.72,8.72,10,12.35Zm20.91.24a.77.77,0,0,1-.93.33,6.85,6.85,0,0,1-2-1.14.77.77,0,0,1-.18-1l.51-.87a5.15,5.15,0,0,1-1-1.68h-1a.76.76,0,0,1-.75-.64,6.92,6.92,0,0,1,0-2.27.76.76,0,0,1,.75-.64h1a5.15,5.15,0,0,1,1-1.68l-.51-.88a.75.75,0,0,1,.18-1A6.75,6.75,0,0,1,30,.05a.75.75,0,0,1,.93.33l.5.88a5.33,5.33,0,0,1,1.95,0l.5-.88a.75.75,0,0,1,.93-.33,6.81,6.81,0,0,1,2,1.14.76.76,0,0,1,.17,1L36.42,3a5.15,5.15,0,0,1,1,1.68h1a.75.75,0,0,1,.75.63,7,7,0,0,1,0,2.28.76.76,0,0,1-.75.64h-1a5.15,5.15,0,0,1-1,1.68l.51.87a.78.78,0,0,1-.17,1,7.19,7.19,0,0,1-2,1.14.77.77,0,0,1-.93-.33l-.5-.88a5.33,5.33,0,0,1-1.95,0Zm0,18.33a.75.75,0,0,1-.93.33,6.63,6.63,0,0,1-2-1.14.75.75,0,0,1-.18-1l.51-.88a5.15,5.15,0,0,1-1-1.68h-1a.75.75,0,0,1-.75-.63,7,7,0,0,1,0-2.28.77.77,0,0,1,.75-.64h1a5.37,5.37,0,0,1,1-1.68l-.51-.87a.77.77,0,0,1,.18-1,7,7,0,0,1,2-1.14.77.77,0,0,1,.93.33l.5.88a5.33,5.33,0,0,1,1.95,0l.5-.88a.77.77,0,0,1,.93-.33,7,7,0,0,1,2,1.14.78.78,0,0,1,.17,1l-.51.87a5.37,5.37,0,0,1,1,1.68h1a.76.76,0,0,1,.75.64,6.92,6.92,0,0,1,0,2.27.76.76,0,0,1-.75.64h-1a5.15,5.15,0,0,1-1,1.68l.51.88a.76.76,0,0,1-.17,1,6.94,6.94,0,0,1-2,1.14.75.75,0,0,1-.93-.33l-.5-.88a5.33,5.33,0,0,1-1.95,0ZM34,4.86A2.29,2.29,0,0,0,30.77,8.1,2.29,2.29,0,0,0,34,4.86Zm0,18.33a2.29,2.29,0,0,0-3.24,3.24A2.29,2.29,0,0,0,34,23.19Z"/></g></g></svg>