<svg xmlns="http://www.w3.org/2000/svg" viewBox="0 0 157 284.2"><defs><style>.cls-1{fill:#0e949c;}</style></defs><g id="Layer_2" data-name="Layer 2"><g id="Layer_1-2" data-name="Layer 1"><polygon class="cls-1" points="0 107.2 157 107.2 144 146.2 123 146.2 111 267.2 131 267.2 131 284.2 28 284.2 28 267.2 46 267.2 37 145.2 14 145.2 0 107.2"/><path class="cls-1" d="M78.86,0a26.42,26.42,0,1,0,26.42,26.42A26.45,26.45,0,0,0,78.86,0Z"/><path class="cls-1" d="M120.73,72.1c-7.23-7.35-25.82-13.39-36-13.39H73c-10.18,0-27.77,6-35,13.39s-15.16,15-15.16,25.16a2.94,2.94,0,0,0,2.93,2.94H133a2.94,2.94,0,0,0,2.93-2.94C135.89,87.05,127.93,79.41,120.73,72.1Z"/></g></g></svg>