<svg xmlns="http://www.w3.org/2000/svg" viewBox="0 0 314.29 278.96"><defs><style>.cls-1{fill:#0e949c;}</style></defs><g id="Layer_2" data-name="Layer 2"><g id="Layer_1-2" data-name="Layer 1"><path class="cls-1" d="M170.55,130.34a57.27,57.27,0,1,0,57.26,57.27A57.27,57.27,0,0,0,170.55,130.34Zm-.29,23.2a15.4,15.4,0,1,1-15.39,15.4A15.42,15.42,0,0,1,170.26,153.54Zm31.52,58.38H139.32a1.71,1.71,0,0,1-1.72-1.7c0-6,4.65-10.41,8.84-14.67s14.47-7.8,20.39-7.8h6.85c5.93,0,16.76,3.52,21,7.8s8.83,8.71,8.83,14.67A1.7,1.7,0,0,1,201.78,211.92Z"/><path class="cls-1" d="M247.31,0a45.06,45.06,0,1,0,45.05,45.06A45.05,45.05,0,0,0,247.31,0Zm-.23,18.25A12.12,12.12,0,1,1,235,30.37,12.13,12.13,0,0,1,247.08,18.25Zm24.8,45.94H222.74a1.34,1.34,0,0,1-1.35-1.34c0-4.69,3.65-8.19,7-11.54s11.38-6.14,16-6.14h5.39c4.67,0,13.19,2.77,16.51,6.14s7,6.85,7,11.54A1.35,1.35,0,0,1,271.88,64.19Z"/><path class="cls-1" d="M45.06,79.19a45.06,45.06,0,1,0,45.05,45.06A45.05,45.05,0,0,0,45.06,79.19Zm-.23,18.26a12.11,12.11,0,1,1-12.11,12.11A12.12,12.12,0,0,1,44.83,97.45Zm24.8,45.93H20.49A1.35,1.35,0,0,1,19.13,142c0-4.69,3.66-8.18,7-11.54s11.39-6.13,16.05-6.13h5.39c4.67,0,13.19,2.77,16.51,6.13s7,6.85,7,11.54A1.35,1.35,0,0,1,69.63,143.38Z"/><path class="cls-1" d="M141.31,3.66a30.44,30.44,0,1,0,30.43,30.43A30.43,30.43,0,0,0,141.31,3.66ZM141.15,16A8.19,8.19,0,1,1,133,24.17,8.2,8.2,0,0,1,141.15,16ZM157.9,47H124.71a.91.91,0,0,1-.91-.91c0-3.17,2.46-5.53,4.69-7.8s7.7-4.14,10.84-4.14H143c3.16,0,8.91,1.87,11.15,4.14s4.7,4.63,4.7,7.8A.92.92,0,0,1,157.9,47Z"/><path class="cls-1" d="M67,218.09a30.44,30.44,0,1,0,30.43,30.43A30.43,30.43,0,0,0,67,218.09Zm-.16,12.33a8.18,8.18,0,1,1-8.18,8.18A8.2,8.2,0,0,1,66.83,230.42Zm16.75,31H50.39a.91.91,0,0,1-.91-.91c0-3.16,2.46-5.53,4.69-7.79S61.86,248.6,65,248.6h3.64c3.15,0,8.91,1.87,11.15,4.15s4.7,4.63,4.7,7.79A.92.92,0,0,1,83.58,261.45Z"/><path class="cls-1" d="M283.86,109.65a30.44,30.44,0,1,0,30.43,30.44A30.44,30.44,0,0,0,283.86,109.65ZM283.7,122a8.19,8.19,0,1,1-8.18,8.19A8.2,8.2,0,0,1,283.7,122Zm16.75,31H267.26a.9.9,0,0,1-.91-.9c0-3.17,2.47-5.53,4.69-7.8s7.7-4.14,10.84-4.14h3.64c3.16,0,8.91,1.87,11.15,4.14s4.7,4.63,4.7,7.8A.91.91,0,0,1,300.45,153Z"/><rect class="cls-1" x="49.59" y="163.26" width="17.06" height="59.7" transform="translate(-27.77 10.65) rotate(-8.46)"/><polygon class="cls-1" points="200.44 146.47 185.67 137.94 221.61 75.27 236.38 83.8 200.44 146.47"/><polygon class="cls-1" points="77.32 106.58 65.63 94.15 118.11 44.5 129.8 56.93 77.32 106.58"/><polygon class="cls-1" points="199.69 188.43 192.03 173.19 256.47 140.53 264.13 155.77 199.69 188.43"/><polygon class="cls-1" points="280.9 118.33 264.13 121.47 253.24 76.61 270.01 73.47 280.9 118.33"/><polygon class="cls-1" points="126.02 156.63 116.75 170.95 76.72 147.96 85.99 133.64 126.02 156.63"/><polygon class="cls-1" points="93.16 247.16 84.07 232.73 121.76 206.08 130.85 220.51 93.16 247.16"/><polygon class="cls-1" points="164.53 44.98 168.06 28.29 213.66 35.43 210.13 52.12 164.53 44.98"/></g></g></svg>